<?xml version="1.0" encoding="utf-8"?>
<!-- Generator: Adobe Illustrator 16.0.0, SVG Export Plug-In . SVG Version: 6.00 Build 0)  -->
<!DOCTYPE svg PUBLIC "-//W3C//DTD SVG 1.1//EN" "http://www.w3.org/Graphics/SVG/1.1/DTD/svg11.dtd">
<svg version="1.1" xmlns="http://www.w3.org/2000/svg" xmlns:xlink="http://www.w3.org/1999/xlink" x="0px" y="0px" width="50px"
	 height="50px" viewBox="0 0 50 50" enable-background="new 0 0 50 50" xml:space="preserve">
<g id="Layer_2" display="none">
	
		<rect x="5" y="5" display="inline" fill="none" stroke="#000000" stroke-width="0.25" stroke-linecap="round" stroke-linejoin="round" stroke-miterlimit="10" width="40" height="40"/>
</g>
<g id="Layer_1">
	<g>
		<path d="M46.363,1.5H15.921c-1.181,0-2.137,0.957-2.137,2.136v19.228H3.637C2.457,22.864,1.5,23.82,1.5,25v21.364
			c0,1.18,0.957,2.136,2.137,2.136h20.295h22.432c1.18,0,2.137-0.957,2.137-2.136V25V3.636C48.5,2.457,47.543,1.5,46.363,1.5z
			 M18.057,5.773h26.171v15.602l-8.045-4.453c-0.645-0.355-1.425-0.355-2.069,0l-10.734,5.942h-5.322V5.773z M5.772,27.136h10.148
			h5.875v17.091H5.772V27.136z M44.228,44.227H26.068V26.259l9.079-5.026l9.08,5.026V44.227z"/>
		<path d="M11.647,29.807H8.443c-0.295,0-0.534,0.239-0.534,0.534v3.205c0,0.295,0.239,0.534,0.534,0.534h3.204
			c0.296,0,0.534-0.239,0.534-0.534v-3.205C12.182,30.046,11.943,29.807,11.647,29.807z"/>
		<path d="M19.125,29.807h-3.204c-0.296,0-0.534,0.239-0.534,0.534v3.205c0,0.295,0.238,0.534,0.534,0.534h3.204
			c0.295,0,0.534-0.239,0.534-0.534v-3.205C19.659,30.046,19.42,29.807,19.125,29.807z"/>
		<path d="M11.647,37.284H8.443c-0.295,0-0.534,0.239-0.534,0.534v3.205c0,0.295,0.239,0.534,0.534,0.534h3.204
			c0.296,0,0.534-0.239,0.534-0.534v-3.205C12.182,37.523,11.943,37.284,11.647,37.284z"/>
		<path d="M19.125,37.284h-3.204c-0.296,0-0.534,0.239-0.534,0.534v3.205c0,0.295,0.238,0.534,0.534,0.534h3.204
			c0.295,0,0.534-0.239,0.534-0.534v-3.205C19.659,37.523,19.42,37.284,19.125,37.284z"/>
		<path d="M33.012,29.807h-3.205c-0.295,0-0.534,0.239-0.534,0.534v3.205c0,0.295,0.239,0.534,0.534,0.534h3.205
			c0.295,0,0.534-0.239,0.534-0.534v-3.205C33.546,30.046,33.307,29.807,33.012,29.807z"/>
		<path d="M37.284,34.08h3.204c0.296,0,0.534-0.239,0.534-0.534v-3.205c0-0.295-0.238-0.534-0.534-0.534h-3.204
			c-0.295,0-0.534,0.239-0.534,0.534v3.205C36.75,33.841,36.989,34.08,37.284,34.08z"/>
		<path d="M33.012,37.284h-3.205c-0.295,0-0.534,0.239-0.534,0.534v3.205c0,0.295,0.239,0.534,0.534,0.534h3.205
			c0.295,0,0.534-0.239,0.534-0.534v-3.205C33.546,37.523,33.307,37.284,33.012,37.284z"/>
		<path d="M37.284,41.557h3.204c0.296,0,0.534-0.239,0.534-0.534v-3.205c0-0.295-0.238-0.534-0.534-0.534h-3.204
			c-0.295,0-0.534,0.239-0.534,0.534v3.205C36.75,41.318,36.989,41.557,37.284,41.557z"/>
		<path d="M22.329,13.45h3.205c0.295,0,0.534-0.239,0.534-0.534V9.711c0-0.295-0.239-0.534-0.534-0.534h-3.205
			c-0.295,0-0.533,0.239-0.533,0.534v3.205C21.796,13.211,22.034,13.45,22.329,13.45z"/>
		<path d="M29.807,13.45h3.205c0.295,0,0.534-0.239,0.534-0.534V9.711c0-0.295-0.239-0.534-0.534-0.534h-3.205
			c-0.295,0-0.534,0.239-0.534,0.534v3.205C29.272,13.211,29.512,13.45,29.807,13.45z"/>
		<path d="M25.534,20.928c0.295,0,0.534-0.239,0.534-0.534v-3.205c0-0.295-0.239-0.534-0.534-0.534h-3.205
			c-0.295,0-0.533,0.239-0.533,0.534v3.205c0,0.295,0.238,0.534,0.533,0.534H25.534z"/>
		<path d="M37.284,13.45h3.204c0.296,0,0.534-0.239,0.534-0.534V9.711c0-0.295-0.238-0.534-0.534-0.534h-3.204
			c-0.295,0-0.534,0.239-0.534,0.534v3.205C36.75,13.211,36.989,13.45,37.284,13.45z"/>
	</g>
</g>
</svg>
