<?xml version="1.0" encoding="utf-8"?>
<!-- Generator: Adobe Illustrator 16.0.0, SVG Export Plug-In . SVG Version: 6.00 Build 0)  -->
<!DOCTYPE svg PUBLIC "-//W3C//DTD SVG 1.1//EN" "http://www.w3.org/Graphics/SVG/1.1/DTD/svg11.dtd">
<svg version="1.1" xmlns="http://www.w3.org/2000/svg" xmlns:xlink="http://www.w3.org/1999/xlink" x="0px" y="0px" width="50px"
	 height="50px" viewBox="0 0 50 50" enable-background="new 0 0 50 50" xml:space="preserve">
<g id="Layer_2" display="none">
	
		<rect x="5" y="5" display="inline" fill="none" stroke="#000000" stroke-width="0.25" stroke-linecap="round" stroke-linejoin="round" stroke-miterlimit="10" width="40" height="40"/>
</g>
<g id="Layer_1">
	<g>
		<path d="M16.785,22.797l1.05-0.006l0.529-0.907c0.261-0.448,0.604-0.833,1-1.15l4.441-8.252L18.49,2.609
			c-0.499-0.927-1.604-1.343-2.589-0.976L7.415,4.792c-0.595,0.222-1.058,0.7-1.261,1.301C5.951,6.694,6.03,7.355,6.37,7.891
			l9.494,15.022C16.162,22.844,16.467,22.8,16.785,22.797z"/>
		<path d="M43.846,6.093c-0.203-0.602-0.666-1.08-1.261-1.301L34.1,1.633c-0.988-0.367-2.091,0.049-2.589,0.976l-9.259,17.203
			c0.645,0.039,1.276,0.217,1.84,0.539L25,20.871l0.908-0.519c0.637-0.364,1.358-0.556,2.089-0.556c1.494,0,2.889,0.801,3.641,2.09
			l0.528,0.906l1.048,0.005c0.317,0.002,0.625,0.046,0.923,0.116L43.63,7.891C43.97,7.355,44.049,6.694,43.846,6.093z"/>
		<path d="M37.254,30.383l-1.945-1.134l-0.012-2.251c-0.006-1.154-0.94-2.088-2.095-2.094l-2.25-0.012l-1.134-1.944
			c-0.582-0.998-1.86-1.341-2.865-0.767L25,23.297l-1.953-1.117c-1.005-0.574-2.283-0.231-2.864,0.767l-1.135,1.944l-2.25,0.013
			c-1.154,0.007-2.088,0.94-2.095,2.094l-0.012,2.251l-1.944,1.134c-0.999,0.583-1.341,1.861-0.767,2.865l1.116,1.953l-1.117,1.953
			c-0.574,1.003-0.231,2.281,0.767,2.865l1.945,1.135l0.012,2.25c0.006,1.154,0.94,2.088,2.095,2.095l2.25,0.012l1.134,1.944
			c0.582,0.998,1.86,1.34,2.865,0.767L25,47.105l1.953,1.117c0.33,0.188,0.689,0.278,1.043,0.278c0.725,0,1.43-0.375,1.821-1.045
			l1.135-1.945l2.251-0.012c1.154-0.006,2.088-0.94,2.094-2.095l0.012-2.25l1.944-1.134c0.999-0.583,1.341-1.861,0.767-2.865
			l-1.117-1.953l1.117-1.953C38.595,32.244,38.252,30.965,37.254,30.383z M33.017,33.602l-4.012,2.918l1.532,4.714
			c0.133,0.407-0.012,0.855-0.359,1.108c-0.174,0.126-0.378,0.188-0.583,0.188c-0.205,0-0.41-0.062-0.583-0.188L25,39.426
			l-4.012,2.916c-0.347,0.252-0.818,0.252-1.166,0c-0.347-0.252-0.492-0.701-0.359-1.108l1.532-4.714l-4.012-2.918
			c-0.348-0.251-0.493-0.7-0.359-1.109c0.132-0.406,0.514-0.684,0.942-0.684h4.959l1.533-4.716c0.133-0.408,0.514-0.684,0.943-0.684
			s0.81,0.276,0.943,0.684l1.532,4.716h4.958c0.428,0,0.81,0.277,0.942,0.684C33.509,32.902,33.364,33.351,33.017,33.602z"/>
	</g>
</g>
</svg>
