<?xml version="1.0" encoding="utf-8"?>
<!-- Generator: Adobe Illustrator 16.0.0, SVG Export Plug-In . SVG Version: 6.00 Build 0)  -->
<!DOCTYPE svg PUBLIC "-//W3C//DTD SVG 1.1//EN" "http://www.w3.org/Graphics/SVG/1.1/DTD/svg11.dtd">
<svg version="1.1" xmlns="http://www.w3.org/2000/svg" xmlns:xlink="http://www.w3.org/1999/xlink" x="0px" y="0px" width="50px"
	 height="50px" viewBox="0 0 50 50" enable-background="new 0 0 50 50" xml:space="preserve">
<g id="Layer_2" display="none">
	
		<rect x="5" y="5" display="inline" fill="none" stroke="#000000" stroke-width="0.25" stroke-linecap="round" stroke-linejoin="round" stroke-miterlimit="10" width="40" height="40"/>
</g>
<g id="Layer_1">
	<g>
		<path d="M48.407,21.619c-0.163-0.347-0.511-0.569-0.895-0.569h-2.927C42.722,10.951,33.856,3.274,23.226,3.274
			C11.247,3.274,1.5,13.021,1.5,25c0,11.979,9.746,21.725,21.726,21.725c7.731,0,14.941-4.161,18.816-10.858
			c0.546-0.945,0.223-2.152-0.721-2.699c-0.945-0.546-2.153-0.224-2.698,0.72c-3.172,5.481-9.072,8.887-15.397,8.887
			C13.425,42.775,5.45,34.801,5.45,25c0-9.802,7.975-17.776,17.776-17.776c8.442,0,15.515,5.921,17.317,13.825h-2.905
			c-0.384,0-0.732,0.222-0.895,0.569c-0.163,0.347-0.11,0.756,0.136,1.051l4.937,5.925c0.188,0.225,0.465,0.355,0.759,0.355
			c0.293,0,0.571-0.13,0.758-0.355l4.938-5.925C48.517,22.375,48.57,21.966,48.407,21.619z"/>
		<path d="M23.226,8.212c-1.091,0-1.975,0.884-1.975,1.975v11.984C20.358,22.797,19.77,23.829,19.77,25
			c0,1.906,1.551,3.457,3.457,3.457c0.522,0,1.014-0.125,1.458-0.334l6.87,3.966c0.311,0.18,0.65,0.265,0.986,0.265
			c0.682,0,1.346-0.354,1.712-0.988c0.545-0.944,0.222-2.152-0.723-2.698l-6.877-3.97c-0.092-1.044-0.636-1.956-1.45-2.526V10.187
			C25.201,9.097,24.316,8.212,23.226,8.212z M23.226,26.481c-0.817,0-1.481-0.665-1.481-1.481s0.665-1.481,1.481-1.481
			c0.816,0,1.481,0.665,1.481,1.481S24.042,26.481,23.226,26.481z"/>
	</g>
</g>
</svg>
